HIERARCHY
ROOT Hips
{
  OFFSET 280.216 92.1061 837.818
  CHANNELS 6 Xposition Yposition Zposition Zrotation Xrotation Yrotation
  JOINT Spine
  {
    OFFSET -2.75631e-05 8 -1.07039e-05
    CHANNELS 6 Xposition Yposition Zposition Zrotation Xrotation Yrotation
    JOINT Spine1
    {
      OFFSET 4.7115e-05 8 1.02656e-05
      CHANNELS 6 Xposition Yposition Zposition Zrotation Xrotation Yrotation
      JOINT Spine2
      {
        OFFSET -1.35898e-05 8 0
        CHANNELS 6 Xposition Yposition Zposition Zrotation Xrotation Yrotation
        JOINT Spine3
        {
          OFFSET 0 8 0
          CHANNELS 6 Xposition Yposition Zposition Zrotation Xrotation Yrotation
          JOINT Neck
          {
            OFFSET -3.6207e-05 17.0003 -2.16366e-05
            CHANNELS 6 Xposition Yposition Zposition Zrotation Xrotation Yrotation
            JOINT Head
            {
              OFFSET -2.46081e-05 10.8 1.35406e-05
              CHANNELS 6 Xposition Yposition Zposition Zrotation Xrotation Yrotation
              End Site
              {
                OFFSET 0 20.25 0
              }
            }
          }
          JOINT LeftShoulder
          {
            OFFSET 4.99999 17 -1.04848e-05
            CHANNELS 6 Xposition Yposition Zposition Zrotation Xrotation Yrotation
            JOINT LeftShoulder2
            {
              OFFSET 6.45 0 0
              CHANNELS 6 Xposition Yposition Zposition Zrotation Xrotation Yrotation
              JOINT LeftArm
              {
                OFFSET 6.45001 1.04291e-05 1.18637e-05
                CHANNELS 6 Xposition Yposition Zposition Zrotation Xrotation Yrotation
                JOINT LeftForeArm
                {
                  OFFSET 2.65537e-05 -32.4 -1.99998
                  CHANNELS 6 Xposition Yposition Zposition Zrotation Xrotation Yrotation
                  JOINT LeftHand
                  {
                    OFFSET -1.86975e-05 -25.65 1.99998
                    CHANNELS 6 Xposition Yposition Zposition Zrotation Xrotation Yrotation
                    JOINT LeftHandThumb1
                    {
                      OFFSET -0.499996 -1.50001 2.65
                      CHANNELS 6 Xposition Yposition Zposition Zrotation Xrotation Yrotation
                      JOINT LeftHandThumb2
                      {
                        OFFSET 1.11706e-05 -3.79998 3.70002
                        CHANNELS 6 Xposition Yposition Zposition Zrotation Xrotation Yrotation
                        JOINT LeftHandThumb3
                        {
                          OFFSET 0 -3 2.7
                          CHANNELS 6 Xposition Yposition Zposition Zrotation Xrotation Yrotation
                          End Site
                          {
                            OFFSET 0 -2.30002 1.79999
                          }
                        }
                      }
                    }
                    JOINT LeftHandIndex
                    {
                      OFFSET 0 -1.9 1.6
                      CHANNELS 6 Xposition Yposition Zposition Zrotation Xrotation Yrotation
                      JOINT LeftHandIndex1
                      {
                        OFFSET 0 -8.3 1.90002
                        CHANNELS 6 Xposition Yposition Zposition Zrotation Xrotation Yrotation
                        JOINT LeftHandIndex2
                        {
                          OFFSET 4.34004e-05 -4.5 0
                          CHANNELS 6 Xposition Yposition Zposition Zrotation Xrotation Yrotation
                          JOINT LeftHandIndex3
                          {
                            OFFSET 0 -3.4 0
                            CHANNELS 6 Xposition Yposition Zposition Zrotation Xrotation Yrotation
                            End Site
                            {
                              OFFSET 0 -2.60002 1.12439e-05
                            }
                          }
                        }
                      }
                    }
                    JOINT LeftHandMiddle
                    {
                      OFFSET -0.249989 -2.20001 0.400002
                      CHANNELS 6 Xposition Yposition Zposition Zrotation Xrotation Yrotation
                      JOINT LeftHandMiddle1
                      {
                        OFFSET 0 -8.3 1.00001
                        CHANNELS 6 Xposition Yposition Zposition Zrotation Xrotation Yrotation
                        JOINT LeftHandMiddle2
                        {
                          OFFSET -1.08788e-05 -4.65 0
                          CHANNELS 6 Xposition Yposition Zposition Zrotation Xrotation Yrotation
                          JOINT LeftHandMiddle3
                          {
                            OFFSET 1.46878e-05 -3.29999 1.92337e-05
                            CHANNELS 6 Xposition Yposition Zposition Zrotation Xrotation Yrotation
                            End Site
                            {
                              OFFSET -3.23378e-05 -2.7 1.24917e-05
                            }
                          }
                        }
                      }
                    }
                    JOINT LeftHandRing
                    {
                      OFFSET -0.49999 -2.15002 -0.799988
                      CHANNELS 6 Xposition Yposition Zposition Zrotation Xrotation Yrotation
                      JOINT LeftHandRing1
                      {
                        OFFSET 0 -7.74999 -0.199987
                        CHANNELS 6 Xposition Yposition Zposition Zrotation Xrotation Yrotation
                        JOINT LeftHandRing2
                        {
                          OFFSET 0 -3.8 1.34945e-05
                          CHANNELS 6 Xposition Yposition Zposition Zrotation Xrotation Yrotation
                          JOINT LeftHandRing3
                          {
                            OFFSET 0 -3.39998 -1.40917e-05
                            CHANNELS 6 Xposition Yposition Zposition Zrotation Xrotation Yrotation
                            End Site
                            {
                              OFFSET 0 -2.60003 -1.68076e-05
                            }
                          }
                        }
                      }
                    }
                    JOINT LeftHandPinky
                    {
                      OFFSET -0.749983 -1.75002 -1.84999
                      CHANNELS 6 Xposition Yposition Zposition Zrotation Xrotation Yrotation
                      JOINT LeftHandPinky1
                      {
                        OFFSET -2.04163e-05 -7.14999 -1.00001
                        CHANNELS 6 Xposition Yposition Zposition Zrotation Xrotation Yrotation
                        JOINT LeftHandPinky2
                        {
                          OFFSET 2.14305e-05 -3.00001 2.73132e-05
                          CHANNELS 6 Xposition Yposition Zposition Zrotation Xrotation Yrotation
                          JOINT LeftHandPinky3
                          {
                            OFFSET 0 -2.35001 -1.37626e-05
                            CHANNELS 6 Xposition Yposition Zposition Zrotation Xrotation Yrotation
                            End Site
                            {
                              OFFSET 0 -2.09998 -1.50635e-05
                            }
                          }
                        }
                      }
                    }
                  }
                }
              }
            }
          }
          JOINT RightShoulder
          {
            OFFSET -4.99999 17 0
            CHANNELS 6 Xposition Yposition Zposition Zrotation Xrotation Yrotation
            JOINT RightShoulder2
            {
              OFFSET -6.45 0 0
              CHANNELS 6 Xposition Yposition Zposition Zrotation Xrotation Yrotation
              JOINT RightArm
              {
                OFFSET -6.45002 0 -1.60603e-05
                CHANNELS 6 Xposition Yposition Zposition Zrotation Xrotation Yrotation
                JOINT RightForeArm
                {
                  OFFSET -1.8359e-05 -32.4 -2.00002
                  CHANNELS 6 Xposition Yposition Zposition Zrotation Xrotation Yrotation
                  JOINT RightHand
                  {
                    OFFSET 1.41759e-05 -25.65 2
                    CHANNELS 6 Xposition Yposition Zposition Zrotation Xrotation Yrotation
                    JOINT RightHandThumb1
                    {
                      OFFSET 0.499993 -1.50001 2.65002
                      CHANNELS 6 Xposition Yposition Zposition Zrotation Xrotation Yrotation
                      JOINT RightHandThumb2
                      {
                        OFFSET 0 -3.79999 3.69999
                        CHANNELS 6 Xposition Yposition Zposition Zrotation Xrotation Yrotation
                        JOINT RightHandThumb3
                        {
                          OFFSET 0 -3.00001 2.70002
                          CHANNELS 6 Xposition Yposition Zposition Zrotation Xrotation Yrotation
                          End Site
                          {
                            OFFSET 0 -2.30003 1.79997
                          }
                        }
                      }
                    }
                    JOINT RightHandIndex
                    {
                      OFFSET -1.37741e-05 -1.9 1.60003
                      CHANNELS 6 Xposition Yposition Zposition Zrotation Xrotation Yrotation
                      JOINT RightHandIndex1
                      {
                        OFFSET 2.70597e-05 -8.30003 1.89993
                        CHANNELS 6 Xposition Yposition Zposition Zrotation Xrotation Yrotation
                        JOINT RightHandIndex2
                        {
                          OFFSET -2.06949e-05 -4.49999 1.14888e-05
                          CHANNELS 6 Xposition Yposition Zposition Zrotation Xrotation Yrotation
                          JOINT RightHandIndex3
                          {
                            OFFSET 0 -3.4 1.32167e-05
                            CHANNELS 6 Xposition Yposition Zposition Zrotation Xrotation Yrotation
                            End Site
                            {
                              OFFSET 1.46036e-05 -2.6 -2.53611e-05
                            }
                          }
                        }
                      }
                    }
                    JOINT RightHandMiddle
                    {
                      OFFSET 0.249999 -2.20002 0.400007
                      CHANNELS 6 Xposition Yposition Zposition Zrotation Xrotation Yrotation
                      JOINT RightHandMiddle1
                      {
                        OFFSET 0 -8.3 0.999975
                        CHANNELS 6 Xposition Yposition Zposition Zrotation Xrotation Yrotation
                        JOINT RightHandMiddle2
                        {
                          OFFSET 0 -4.64999 1.29999e-05
                          CHANNELS 6 Xposition Yposition Zposition Zrotation Xrotation Yrotation
                          JOINT RightHandMiddle3
                          {
                            OFFSET -2.64261e-05 -3.3 2.57139e-05
                            CHANNELS 6 Xposition Yposition Zposition Zrotation Xrotation Yrotation
                            End Site
                            {
                              OFFSET 0 -2.7 0
                            }
                          }
                        }
                      }
                    }
                    JOINT RightHandRing
                    {
                      OFFSET 0.499997 -2.15002 -0.799993
                      CHANNELS 6 Xposition Yposition Zposition Zrotation Xrotation Yrotation
                      JOINT RightHandRing1
                      {
                        OFFSET 1.55764e-05 -7.75002 -0.200003
                        CHANNELS 6 Xposition Yposition Zposition Zrotation Xrotation Yrotation
                        JOINT RightHandRing2
                        {
                          OFFSET 0 -3.8 -1.97799e-05
                          CHANNELS 6 Xposition Yposition Zposition Zrotation Xrotation Yrotation
                          JOINT RightHandRing3
                          {
                            OFFSET 0 -3.4 0
                            CHANNELS 6 Xposition Yposition Zposition Zrotation Xrotation Yrotation
                            End Site
                            {
                              OFFSET -1.03385e-05 -2.59998 4.60239e-05
                            }
                          }
                        }
                      }
                    }
                    JOINT RightHandPinky
                    {
                      OFFSET 0.750001 -1.75003 -1.85
                      CHANNELS 6 Xposition Yposition Zposition Zrotation Xrotation Yrotation
                      JOINT RightHandPinky1
                      {
                        OFFSET 0 -7.14998 -0.999965
                        CHANNELS 6 Xposition Yposition Zposition Zrotation Xrotation Yrotation
                        JOINT RightHandPinky2
                        {
                          OFFSET 0 -3 -4.46244e-05
                          CHANNELS 6 Xposition Yposition Zposition Zrotation Xrotation Yrotation
                          JOINT RightHandPinky3
                          {
                            OFFSET -1.94032e-05 -2.35 2.20048e-05
                            CHANNELS 6 Xposition Yposition Zposition Zrotation Xrotation Yrotation
                            End Site
                            {
                              OFFSET 0 -2.09996 -5.12684e-05
                            }
                          }
                        }
                      }
                    }
                  }
                }
              }
            }
          }
        }
      }
    }
  }
  JOINT LeftUpLeg
  {
    OFFSET 8 0 0
    CHANNELS 6 Xposition Yposition Zposition Zrotation Xrotation Yrotation
    JOINT LeftLeg
    {
      OFFSET 1.27769e-05 -45 -0.999981
      CHANNELS 6 Xposition Yposition Zposition Zrotation Xrotation Yrotation
      JOINT LeftFoot
      {
        OFFSET -2.39365e-05 -41 -2.00005
        CHANNELS 6 Xposition Yposition Zposition Zrotation Xrotation Yrotation
        JOINT LeftToeBase
        {
          OFFSET 0 -7.50001 12.5
          CHANNELS 6 Xposition Yposition Zposition Zrotation Xrotation Yrotation
          JOINT LeftFootToe
          {
            OFFSET 0 0 4
            CHANNELS 6 Xposition Yposition Zposition Zrotation Xrotation Yrotation
            End Site
            {
              OFFSET 0 0 0
            }
          }
        }
      }
    }
  }
  JOINT RightUpLeg
  {
    OFFSET -8 0 0
    CHANNELS 6 Xposition Yposition Zposition Zrotation Xrotation Yrotation
    JOINT RightLeg
    {
      OFFSET 0 -45 -0.999991
      CHANNELS 6 Xposition Yposition Zposition Zrotation Xrotation Yrotation
      JOINT RightFoot
      {
        OFFSET -4.02877e-05 -41 -2.00002
        CHANNELS 6 Xposition Yposition Zposition Zrotation Xrotation Yrotation
        JOINT RightToeBase
        {
          OFFSET 0 -7.5 12.5
          CHANNELS 6 Xposition Yposition Zposition Zrotation Xrotation Yrotation
          JOINT RightFootToe
          {
            OFFSET 0 0 4
            CHANNELS 6 Xposition Yposition Zposition Zrotation Xrotation Yrotation
            End Site
            {
              OFFSET 0 0 0
            }
          }
        }
      }
    }
  }
}
MOTION
Frames:	3
Frame Time:	0.0111111
293.717 92.0827 827.582 -0.583931 -1.22836 67.3095 0 8 0 1.51171 5.63109 -6.31105 -1.13687e-13 8 0 0.040821 -0.666227 -2.96044 0 8 0 0.0247174 -0.33291 -1.48051 -1.13687e-13 8 1.13687e-13 0.0247108 -0.332792 -1.48 0 17 0 -3.6497 7.36207 12.1259 1.13687e-13 10.8 1.13687e-13 -5.68404 1.49687 27.7941 5 17 0 -9.34135 7.55942 2.62306 6.45 0 0 0.44271 -0.0744164 2.2265 6.45 -5.68434e-14 0 40.8601 -19.9493 27.8922 0 -32.4 -2 -1.33597 -22.9206 31.5369 0 -25.65 2 -1.71919 0.552039 22.5221 -0.5 -1.5 2.65 -7.36295 -15.0327 -8.6935 0 -3.8 3.7 -0.18763 20.6121 0.0200488 1.13687e-13 -3 2.7 -0.0174544 17.4286 -0.00752714 0 -1.9 1.6 -8.71627e-07 1.05263e-06 -2.77942e-06 -1.13687e-13 -8.3 1.9 -4.42881 -16.7182 -0.505535 1.13687e-13 -4.5 2.84217e-14 -0.000682603 -1.1481e-06 0.0270382 0 -3.4 2.84217e-14 1.27415e-05 3.29779e-08 0.0271611 -0.25 -2.2 0.4 -8.71627e-07 1.05263e-06 -2.77942e-06 -1.13687e-13 -8.3 1 -8.67247 -6.17628 -0.0670643 2.27374e-13 -4.65 0 -0.00159498 9.39685e-06 -1.61363e-05 1.13687e-13 -3.3 5.68434e-14 1.89819e-06 5.86137e-06 2.83151e-05 -0.5 -2.15 -0.8 -8.71627e-07 1.05263e-06 -2.77942e-06 1.13687e-13 -7.75 -0.2 -19.2806 10.0778 2.65989 0 -3.8 -5.68434e-14 -0.29198 0.000266346 0.0107895 -1.13687e-13 -3.4 0 -0.282884 0.000452429 0.000948077 -0.75 -1.75 -1.85 -8.71627e-07 1.05263e-06 -2.77942e-06 0 -7.15 -1 -26.2488 18.1253 5.62514 -1.13687e-13 -3 0 4.87785e-05 0.0033995 -0.00494036 -1.13687e-13 -2.35 -5.68434e-14 -3.53644e-06 0.00953214 -0.00193809 -5 17 0 1.22546 8.15078 4.12157 -6.45 -5.68434e-14 1.13687e-13 -1.64281 0.337213 0.582466 -6.45 0 0 -24.12 10.327 1.25018 1.13687e-13 -32.4 -2 43.6438 -43.6516 47.0575 0 -25.65 2 -20.4064 -9.9957 15.6801 0.5 -1.5 2.65 10.7369 -26.2463 -0.82392 1.13687e-13 -3.8 3.7 0.230168 28.551 -0.065091 0 -3 2.7 -0.00589116 14.132 -0.0137576 0 -1.9 1.6 -3.18055e-15 -4.77083e-15 -0 0 -8.3 1.9 17.8427 12.5707 -2.15961 0 -4.5 5.68434e-14 36.5764 0.038674 0.0149377 1.13687e-13 -3.4 0 26.0198 0.00927465 0.0333598 0.25 -2.2 0.4 -3.18055e-15 -4.77083e-15 -0 0 -8.3 1 31.4469 10.1225 -3.91924 0 -4.65 0 67.8562 -0.0311602 -0.0361645 1.13687e-13 -3.3 -5.68434e-14 49.5141 -0.013299 0.0412021 0.5 -2.15 -0.8 -3.18055e-15 -4.77083e-15 -0 0 -7.75 -0.2 48.5376 1.23672 -3.24601 0 -3.8 0 52.2127 0.0136445 0.0226605 -2.84217e-14 -3.4 0 36.0427 -0.0269129 -0.00817144 0.75 -1.75 -1.85 -3.18055e-15 -4.77083e-15 -0 -2.27374e-13 -7.15 -1 56.0407 -1.22925 -3.23244 1.13687e-13 -3 5.68434e-14 28.9979 -0.0221674 -0.0197553 0 -2.35 5.68434e-14 21.4907 -0.034404 -0.0194228 8 2.84217e-14 0 8.33348 -14.9819 16.8245 0 -45 -1 0.00100058 16.5776 -0.00674423 0 -41 -2 -2.42433 -0.319304 -3.968 0 -7.5 12.5 4.89452e-12 -3.005e-07 -3.49696e-06 0 0 4 -0.13002 -6.00782 9.39739 -8 1.42109e-14 1.13687e-13 -5.39778 2.58149 -0.771065 -1.13687e-13 -45 -1 0.00505149 4.54034 -0.693565 1.13687e-13 -41 -2 6.92657 -6.89655 -3.66746 -1.13687e-13 -7.5 12.5 -1.85067e-09 -0.0101634 2.35469e-06 1.13687e-13 0 4 -4.19525 4.71704 -3.911 
293.602 92.0935 827.797 -0.607212 -1.30175 67.516 1.13687e-13 8 0 1.6072 5.65081 -6.32992 0 8 0 0.0271563 -0.633031 -2.97655 1.13687e-13 8 0 0.017786 -0.316401 -1.48856 -1.13687e-13 8 0 0.0182372 -0.318311 -1.48991 1.13687e-13 17 0 -3.57517 7.29268 11.9646 0 10.8 0 -5.48894 1.4085 27.4259 5 17 0 -9.23425 7.58101 2.57848 6.45 -2.84217e-14 0 0.437562 -0.0747605 2.20819 6.45 -5.68434e-14 0 41.144 -20.173 28.1629 0 -32.4 -2 -1.32642 -22.261 31.6216 1.13687e-13 -25.65 2 -1.74713 0.0628584 22.35 -0.5 -1.5 2.65 -6.90064 -15.2172 -8.78009 0 -3.8 3.7 -0.187129 21.0571 0.0224019 0 -3 2.7 -0.0124877 17.0733 0.000263503 0 -1.9 1.6 -8.71627e-07 1.05263e-06 -2.77942e-06 -1.13687e-13 -8.3 1.9 -4.43259 -16.7453 -0.497221 0 -4.5 2.84217e-14 -0.000682603 -1.1481e-06 0.0270382 0 -3.4 0 1.27415e-05 3.29779e-08 0.0271611 -0.25 -2.2 0.4 -8.71627e-07 1.05263e-06 -2.77942e-06 -1.13687e-13 -8.3 1 -8.90765 -6.14217 -0.0592567 0 -4.65 0 -0.00159498 9.39685e-06 -1.61363e-05 0 -3.3 0 1.89819e-06 5.86137e-06 2.83151e-05 -0.5 -2.15 -0.8 -8.71627e-07 1.05263e-06 -2.77942e-06 -1.13687e-13 -7.75 -0.2 -20.0859 10.0112 2.76181 0 -3.8 5.68434e-14 -0.550224 0.000266346 0.0107895 0 -3.4 0 -0.534992 0.000452429 0.000948077 -0.75 -1.75 -1.85 -8.71627e-07 1.05263e-06 -2.77942e-06 -1.13687e-13 -7.15 -1 -27.3751 17.8565 5.80409 0 -3 0 4.87785e-05 0.0033995 -0.00494036 -1.13687e-13 -2.35 0 -3.53644e-06 0.00953214 -0.00193809 -5 17 0 1.33349 8.15536 4.01406 -6.45 0 0 -1.66063 0.336562 0.553809 -6.45 5.68434e-14 0 -24.1982 10.2102 1.50434 -1.13687e-13 -32.4 -2 43.7673 -43.7438 47.0648 -1.13687e-13 -25.65 2 -20.5224 -10.007 15.7249 0.5 -1.5 2.65 10.7229 -26.261 -0.862772 0 -3.8 3.7 0.228494 28.5611 -0.0650972 1.13687e-13 -3 2.7 -0.00589793 14.1046 -0.0137559 0 -1.9 1.6 3.18055e-15 1.59028e-15 3.18055e-15 0 -8.3 1.9 17.8906 12.5608 -2.16391 -1.13687e-13 -4.5 -5.68434e-14 36.5785 0.038674 0.0149377 0 -3.4 5.68434e-14 26.021 0.00927465 0.0333598 0.25 -2.2 0.4 3.18055e-15 1.59028e-15 3.18055e-15 0 -8.3 1 31.4709 10.1223 -3.91924 0 -4.65 0 67.7933 -0.0311602 -0.0361645 5.68434e-14 -3.3 -5.68434e-14 49.4474 -0.013299 0.0412021 0.5 -2.15 -0.8 3.18055e-15 1.59028e-15 3.18055e-15 0 -7.75 -0.2 48.4931 1.24111 -3.24315 0 -3.8 5.68434e-14 52.2233 0.0136445 0.0226605 0 -3.4 0 36.0503 -0.0269129 -0.00817144 0.75 -1.75 -1.85 3.18055e-15 1.59028e-15 3.18055e-15 0 -7.15 -1 55.9733 -1.22087 -3.22789 0 -3 0 29.0224 -0.0221674 -0.0197553 0 -2.35 0 21.5055 -0.034404 -0.0194228 8 0 0 8.52116 -14.9418 16.8947 1.13687e-13 -45 -1 0.00253313 16.4045 -0.0237532 0 -41 -2 -2.52401 -0.149539 -3.86659 0 -7.5 12.5 4.89452e-12 -3.005e-07 -3.49696e-06 -1.13687e-13 -8.67362e-19 4 -0.00334679 -6.04102 9.39944 -8 0 -1.13687e-13 -5.1568 2.70325 -0.855895 -1.13687e-13 -45 -1 0.0023023 4.36699 -0.642634 -1.13687e-13 -41 -2 6.75938 -6.87102 -3.72696 0 -7.5 12.5 -2.00537e-09 -0.00639921 2.35469e-06 0 0 4 -4.13205 4.61412 -3.92508 
293.487 92.1042 828.013 -0.62993 -1.37369 67.7228 1.13687e-13 8 -1.13687e-13 1.70271 5.67053 -6.34879 0 8 0 0.0135102 -0.599836 -2.99267 1.13687e-13 8 0 0.0108594 -0.299892 -1.4966 1.13687e-13 8 1.13687e-13 0.0110284 -0.301062 -1.49757 -1.13687e-13 17 0 -3.50104 7.22314 11.8034 0 10.8 0 -5.29501 1.31946 27.0578 5 17 1.13687e-13 -9.12712 7.6026 2.53389 6.45 0 1.13687e-13 0.429999 -0.0750732 2.18462 6.45 -2.84217e-14 1.13687e-13 41.4303 -20.3952 28.4347 1.13687e-13 -32.4 -2 -1.31881 -21.6032 31.71 0 -25.65 2 -1.77798 -0.427526 22.1797 -0.5 -1.5 2.65 -6.43891 -15.4015 -8.86693 0 -3.8 3.7 -0.186667 21.5021 0.0247705 0 -3 2.7 -0.00742005 16.7179 0.00802453 0 -1.9 1.6 -8.71627e-07 1.05263e-06 -2.77942e-06 1.13687e-13 -8.3 1.9 -4.43636 -16.7724 -0.488905 0 -4.5 0 -0.000682603 -1.1481e-06 0.0270382 0 -3.4 0 1.27415e-05 3.29779e-08 0.0271611 -0.25 -2.2 0.4 -8.71627e-07 1.05263e-06 -2.77942e-06 1.13687e-13 -8.3 1 -9.14285 -6.10807 -0.05145 1.13687e-13 -4.65 0 -0.00159498 9.39685e-06 -1.61363e-05 0 -3.3 0 1.89819e-06 5.86137e-06 2.83151e-05 -0.5 -2.15 -0.8 -8.71627e-07 1.05263e-06 -2.77942e-06 -1.13687e-13 -7.75 -0.2 -20.8909 9.94462 2.86369 0 -3.8 -5.68434e-14 -0.808468 0.000266346 0.0107895 0 -3.4 0 -0.7871 0.000452429 0.000948077 -0.75 -1.75 -1.85 -8.71627e-07 1.05263e-06 -2.77942e-06 -1.13687e-13 -7.15 -1 -28.4996 17.5877 5.98264 -1.13687e-13 -3 0 4.87785e-05 0.0033995 -0.00494036 -1.13687e-13 -2.35 -5.68434e-14 -3.53644e-06 0.00953214 -0.00193809 -5 17 0 1.44154 8.15991 3.90656 -6.45 0 0 -1.67851 0.336313 0.521847 -6.45 0 0 -24.2754 10.0933 1.75832 0 -32.4 -2 43.8909 -43.8361 47.0722 -1.13687e-13 -25.65 2 -20.6385 -10.0184 15.7697 0.5 -1.5 2.65 10.7088 -26.2757 -0.901634 -1.13687e-13 -3.8 3.7 0.22682 28.5711 -0.0651034 -1.13687e-13 -3 2.7 -0.00590471 14.0773 -0.0137543 0 -1.9 1.6 8.82781e-32 1.59028e-15 -3.18055e-15 0 -8.3 1.9 17.9384 12.5509 -2.1682 0 -4.5 0 36.5806 0.038674 0.0149377 0 -3.4 0 26.0223 0.00927465 0.0333598 0.25 -2.2 0.4 8.82781e-32 1.59028e-15 -3.18055e-15 1.13687e-13 -8.3 1 31.4948 10.1221 -3.91923 -1.13687e-13 -4.65 -5.68434e-14 67.7304 -0.0311602 -0.0361645 0 -3.3 0 49.3807 -0.013299 0.0412021 0.5 -2.15 -0.8 8.82781e-32 1.59028e-15 -3.18055e-15 -1.13687e-13 -7.75 -0.2 48.4487 1.2455 -3.2403 0 -3.8 0 52.234 0.0136445 0.0226605 2.84217e-14 -3.4 5.68434e-14 36.0579 -0.0269129 -0.00817144 0.75 -1.75 -1.85 8.82781e-32 1.59028e-15 -3.18055e-15 -1.13687e-13 -7.15 -1 55.9059 -1.21249 -3.22334 0 -3 -5.68434e-14 29.0469 -0.0221674 -0.0197553 5.68434e-14 -2.35 0 21.5202 -0.034404 -0.0194228 8 2.84217e-14 0 8.70875 -14.9017 16.9649 0 -45 -1 0.00395861 16.2313 -0.0407321 1.13687e-13 -41 -2 -2.62429 0.0202661 -3.76523 -1.13687e-13 -7.5 12.5 4.89452e-12 -3.005e-07 -3.49696e-06 1.13687e-13 0 4 0.126018 -6.08264 9.40033 -8 0 0 -4.91546 2.82499 -0.940745 0 -45 -1 -0.000137866 4.19362 -0.591732 0 -41 -2 6.59225 -6.84548 -3.78646 0 -7.5 12.5 -2.16007e-09 -0.00263501 2.35469e-06 0 0 4 -4.06166 4.46808 -3.90815 
